# xmcd
#
# Track frame offsets:
#   150
#   13612
#   28729
#   43437
#   58864
#   72947
#   86457
#   98953
#   113339
#   128244
#
# Disc length: 1909 seconds
#
# Revision: 0
# Processed by: cddbd v1.5.2PL0 Copyright (c) Steve Scherf et al.
# Submitted via: uFREEDB ActiveX Control 1.5
#
DISCID=8407730a
DTITLE=Luan Santana - Quando Chega a Noite
DYEAR=2012
DGENRE=Sertanejo
TTITLE0=Você de Min Não Sai
TTITLE1=Coladinho
TTITLE2=Quando Chega a Noite
TTITLE3=24 Horas de de Você
TTITLE4=Incondicional
TTITLE5=Será Que é Erro Meu
TTITLE6=Nega
TTITLE7=Te Vivo
TTITLE8=3 De Maio
TTITLE9=Promete
EXTD=
EXTT0=
EXTT1=
EXTT2=
EXTT3=
EXTT4=
EXTT5=
EXTT6=
EXTT7=
EXTT8=
EXTT9=
PLAYORDER=
